<svg xmlns="http://www.w3.org/2000/svg">
	<defs>
		<style>
			.img { display: none }
			.img:target { display: inline }
		</style>
	</defs>
	<svg xmlns="http://www.w3.org/2000/svg" version="1.1" xmlns:xlink="http://www.w3.org/1999/xlink" xmlns:avocode="https://avocode.com/" viewBox="0 0 13 17">
		<g id="address" class="img">
			<g>
				<path d="M6.8621,0.0269c3.385,0 6.138,2.754 6.138,6.139c0,4.199 -5.493,10.365 -5.727,10.627c-0.219,0.244 -0.602,0.244 -0.822,0c-0.234,-0.262 -5.727,-6.428 -5.727,-10.627c0,-3.385 2.754,-6.139 6.138,-6.139zM6.8621,9.2539c1.703,0 3.088,-1.385 3.088,-3.088c0,-1.703 -1.385,-3.088 -3.088,-3.088c-1.703,0 -3.088,1.385 -3.088,3.088c0,1.703 1.385,3.088 3.088,3.088z" fill="#f4b711" fill-opacity="1">
				</path>
			</g>
		</g>
	</svg>
	<svg xmlns="http://www.w3.org/2000/svg" version="1.1" xmlns:xlink="http://www.w3.org/1999/xlink" xmlns:avocode="https://avocode.com/" viewBox="0 0 19 16">
		<g id="time" class="img">
			<g>
				<path d="M18.537,0.2126c0.21,0.211 0.326,0.498 0.325,0.795l-0.011,13.658c-0.001,0.614 -0.499,1.118 -1.112,1.118h-15.754c-0.612,0 -1.111,-0.508 -1.111,-1.12l-0.012,-13.66c0,-0.297 0.116,-0.58 0.326,-0.791c0.21,-0.21 0.489,-0.336 0.785,-0.336h15.779c0.296,0 0.575,0.126 0.785,0.336zM17.189,4.6626c0,-0.057 -0.047,-0.104 -0.104,-0.104h-14.44c-0.058,0 -0.104,0.047 -0.104,0.104v9.355c0,0.059 0.046,0.104 0.104,0.104h14.44c0.057,0 0.104,-0.045 0.104,-0.104z" fill="#f4b711" fill-opacity="1">
				</path>
			</g>
			<g>
				<path d="M4.4534,8.7363v0h1.661c0.417,0 0.755,-0.339 0.755,-0.756v-1.358c0,-0.417 -0.338,-0.755 -0.755,-0.755h-1.661c-0.416,0 -0.755,0.338 -0.755,0.755v1.358c0,0.417 0.339,0.756 0.755,0.756z" fill="#f4b711" fill-opacity="1">
				</path>
			</g>
			<g>
				<path d="M9.0342,8.7363v0h1.661c0.417,0 0.755,-0.339 0.755,-0.756v-1.358c0,-0.417 -0.338,-0.755 -0.755,-0.755h-1.661c-0.416,0 -0.755,0.338 -0.755,0.755v1.358c0,0.417 0.339,0.756 0.755,0.756z" fill="#f4b711" fill-opacity="1">
				</path>
			</g>
			<g>
				<path d="M13.6653,8.7363v0h1.661c0.417,0 0.755,-0.339 0.755,-0.756v-1.358c0,-0.417 -0.338,-0.755 -0.755,-0.755h-1.661c-0.416,0 -0.755,0.338 -0.755,0.755v1.358c0,0.417 0.339,0.756 0.755,0.756z" fill="#f4b711" fill-opacity="1">
				</path>
			</g>
			<g>
				<path d="M4.4534,12.9141v0h1.661c0.417,0 0.755,-0.338 0.755,-0.755v-1.359c0,-0.416 -0.338,-0.755 -0.755,-0.755h-1.661c-0.416,0 -0.755,0.339 -0.755,0.755v1.359c0,0.417 0.339,0.755 0.755,0.755z" fill="#f4b711" fill-opacity="1">
				</path>
			</g>
			<g>
				<path d="M9.0342,12.9141v0h1.661c0.417,0 0.755,-0.338 0.755,-0.755v-1.359c0,-0.416 -0.338,-0.755 -0.755,-0.755h-1.661c-0.416,0 -0.755,0.339 -0.755,0.755v1.359c0,0.417 0.339,0.755 0.755,0.755z" fill="#f4b711" fill-opacity="1">
				</path>
			</g>
			<g>
				<path d="M13.6653,12.9141v0h1.661c0.417,0 0.755,-0.338 0.755,-0.755v-1.359c0,-0.416 -0.338,-0.755 -0.755,-0.755h-1.661c-0.416,0 -0.755,0.339 -0.755,0.755v1.359c0,0.417 0.339,0.755 0.755,0.755z" fill="#f4b711" fill-opacity="1">
				</path>
			</g>
		</g>
	</svg>
	<svg xmlns="http://www.w3.org/2000/svg" version="1.1" xmlns:xlink="http://www.w3.org/1999/xlink" xmlns:avocode="https://avocode.com/" viewBox="0 0 18 17">
		<g id="phone" class="img">
			<g>
				<path d="M17.5166,12.5283v0l-2.403,-2.402c-0.858,-0.859 -2.316,-0.515 -2.66,0.6c-0.257,0.773 -1.115,1.201 -1.887,1.03c-1.717,-0.429 -4.033,-2.661 -4.462,-4.461c-0.258,-0.774 0.257,-1.631 1.029,-1.889c1.116,-0.343 1.459,-1.802 0.601,-2.66l-2.403,-2.403c-0.686,-0.599 -1.716,-0.599 -2.316,0l-1.631,1.631c-1.63,1.716 0.172,6.264 4.205,10.297c4.033,4.033 8.581,5.92 10.297,4.204l1.63,-1.63c0.601,-0.687 0.601,-1.716 0,-2.317z" fill="#f4b711" fill-opacity="1">
				</path>
			</g>
		</g>
	</svg>
	<svg xmlns="http://www.w3.org/2000/svg" version="1.1" xmlns:xlink="http://www.w3.org/1999/xlink" xmlns:avocode="https://avocode.com/" viewBox="0 0 22 15">
		<g id="mail" class="img">
			<g>
				<path d="M14.6631,7.7705v0l7.198,4.55v0v-9.293v0z" fill="#f4b711" fill-opacity="1">
				</path>
			</g>
			<g>
				<path d="M0.5107,3.0273v0v9.293v0l7.198,-4.55v0z" fill="#f4b711" fill-opacity="1">
				</path>
			</g>
			<g>
				<path d="M20.5264,0.3223v0h-18.681c-0.666,0 -1.195,0.496 -1.295,1.135l10.635,7.008v0l10.635,-7.008c-0.1,-0.639 -0.628,-1.135 -1.294,-1.135z" fill="#f4b711" fill-opacity="1">
				</path>
			</g>
			<g>
				<path d="M13.4407,8.5762v0l-1.888,1.244c-0.112,0.073 -0.239,0.11 -0.367,0.11c-0.128,0 -0.255,-0.037 -0.367,-0.11l-1.888,-1.245v0l-8.377,5.299c0.102,0.634 0.628,1.126 1.291,1.126h18.682c0.663,0 1.189,-0.492 1.291,-1.126z" fill="#f4b711" fill-opacity="1">
				</path>
			</g>
		</g>
	</svg>
	<svg xmlns="http://www.w3.org/2000/svg" version="1.1" xmlns:xlink="http://www.w3.org/1999/xlink" xmlns:avocode="https://avocode.com/" viewBox="0 0 51 45">
		<g id="dostup" class="img">
			<g>
				<path d="M39.9359,0.0002c2.038,0 3.688,1.65 3.688,3.688v15.44c0,0.979 -0.389,1.918 -1.08,2.611l-20.1,20.096c-1.441,1.44 -3.775,1.44 -5.215,0l-15.442,-15.442c-1.44,-1.442 -1.44,-3.777 0,-5.216l20.1,-20.097c0.691,-0.691 1.63,-1.08 2.607,-1.08zM33.4819,12.9082c1.527,0 2.766,-1.239 2.766,-2.766c0,-1.527 -1.239,-2.766 -2.766,-2.766c-1.527,0 -2.766,1.239 -2.766,2.766c0,1.527 1.239,2.766 2.766,2.766z" fill="#f4b711" fill-opacity="1">
				</path>
			</g>
			<g>
				<path d="M47.312,3.688v0l-0.002,17.166c0,0.85 -0.337,1.667 -0.94,2.268l-20.424,20.424v0l0.313,0.314c1.44,1.44 3.775,1.44 5.215,0l18.443,-18.441c0.694,-0.691 1.083,-1.629 1.083,-2.607v-15.436c0,-2.038 -1.65,-3.688 -3.688,-3.688z" fill="#f4b711" fill-opacity="1">
				</path>
			</g>
		</g>
	</svg>
	<svg xmlns="http://www.w3.org/2000/svg" version="1.1" xmlns:xlink="http://www.w3.org/1999/xlink" xmlns:avocode="https://avocode.com/" viewBox="0 0 51 44">
		<g id="fast" class="img">
			<g>
				<path d="M41.9939,6.3496c-4.27,-3.806 -9.619,-6.022 -15.323,-6.35v9.34c3.217,0.294 6.235,1.544 8.72,3.613z" fill="#f4b711" fill-opacity="1">
				</path>
			</g>
			<g>
				<path d="M41.1047,23.7656v0h9.34c-0.33,-5.706 -2.549,-11.056 -6.357,-15.324l-6.604,6.603c2.072,2.485 3.325,5.503 3.621,8.721z" fill="#f4b711" fill-opacity="1">
				</path>
			</g>
			<g>
				<path d="M28.4788,21.9824c-1.813,-1.813 -4.763,-1.813 -6.576,0c-1.813,1.813 -1.813,4.763 0,6.576c2.291,2.29 13.546,9.477 14.822,10.289c0.586,0.372 1.351,0.288 1.841,-0.202c0.491,-0.491 0.575,-1.256 0.202,-1.841c-0.812,-1.276 -7.999,-12.532 -10.289,-14.822z" fill="#f4b711" fill-opacity="1">
				</path>
			</g>
			<g>
				<path d="M41.1025,26.7251c-0.208,2.279 -0.858,4.18 -1.627,5.705c0.75,1.158 1.376,2.136 1.789,2.785c1.126,1.769 0.877,4.04 -0.606,5.523c-0.36,0.36 -0.771,0.65 -1.217,0.864l1.538,1.538c0.29,0.29 0.669,0.434 1.049,0.434c0.379,0 0.758,-0.144 1.048,-0.434c4.432,-4.431 7.016,-10.214 7.37,-16.415z" fill="#f4b711" fill-opacity="1">
				</path>
			</g>
			<g>
				<path d="M9.2788,26.7251v0h-9.343c0.353,6.201 2.937,11.984 7.369,16.415c0.29,0.29 0.669,0.435 1.048,0.435c0.38,0 0.759,-0.145 1.049,-0.435l4.49,-4.49c0.578,-0.579 0.578,-1.517 0,-2.096c-1.172,-1.172 -4.123,-4.453 -4.613,-9.829z" fill="#f4b711" fill-opacity="1">
				</path>
			</g>
			<g>
				<path d="M12.8975,15.0449v0l-6.604,-6.604c-3.808,4.269 -6.027,9.619 -6.357,15.325h9.34c0.296,-3.219 1.549,-6.236 3.621,-8.721z" fill="#f4b711" fill-opacity="1">
				</path>
			</g>
			<g>
				<path d="M23.7109,0c-5.704,0.328 -11.054,2.544 -15.323,6.35l6.603,6.603c2.485,-2.069 5.502,-3.319 8.72,-3.613z" fill="#f4b711" fill-opacity="1">
				</path>
			</g>
		</g>
	</svg>
	<svg xmlns="http://www.w3.org/2000/svg" version="1.1" xmlns:xlink="http://www.w3.org/1999/xlink" xmlns:avocode="https://avocode.com/" viewBox="0 0 40 47">
		<g id="garant" class="img">
			<g>
				<path d="M39.3033,12.4596c0.221,11.672 0.498,27.549 -18.863,34.242l-0.553,0.11l-0.554,-0.11c-19.416,-6.693 -19.084,-22.625 -18.863,-34.242c0.056,-1.216 0.056,-2.378 0.056,-3.54c0,-0.94 0.719,-1.659 1.659,-1.659c6.915,0 12.17,-1.992 16.54,-6.251c0.664,-0.609 1.659,-0.609 2.323,0c4.37,4.259 9.626,6.251 16.54,6.251c0.94,0 1.66,0.719 1.66,1.659c0,1.162 0,2.324 0.055,3.54zM28.7933,18.9326l-2.268,-2.434l-8.962,8.518l-4.038,-4.48l-2.489,2.212l5.144,5.698c0.277,0.332 0.72,0.553 1.162,0.553h0.055c0.443,0 0.83,-0.166 1.162,-0.442z" fill="#f4b711" fill-opacity="1">
				</path>
			</g>
		</g>
	</svg>
	<svg xmlns="http://www.w3.org/2000/svg" version="1.1" xmlns:xlink="http://www.w3.org/1999/xlink" xmlns:avocode="https://avocode.com/" viewBox="0 0 24 24">
		<g id="list" class="img">
			<g>
				<path d="M23.9597,0.832c-0.082,-0.198 -0.276,-0.328 -0.491,-0.328c-20.617,0 -22.842,8.544 -22.842,12.218c0,1.322 0.293,2.556 0.872,3.669c0.089,0.172 0.265,0.281 0.459,0.286c0.182,-0.006 0.375,-0.097 0.471,-0.266c1.392,-2.406 5.334,-8.343 11.843,-11.497c0.267,-0.127 0.586,-0.018 0.712,0.245c0.128,0.264 0.017,0.583 -0.246,0.71c-0.491,0.238 -0.963,0.498 -1.425,0.766c-0.176,0.103 -0.347,0.213 -0.52,0.32c-0.261,0.162 -0.518,0.326 -0.769,0.496c-0.249,0.168 -0.496,0.34 -0.738,0.517c-0.076,0.055 -0.148,0.111 -0.222,0.168c-6.479,4.827 -10.437,12.529 -10.437,15.211c0,0.293 0.238,0.531 0.531,0.531c0.293,0 0.531,-0.238 0.531,-0.531c0,-0.857 0.583,-2.593 1.687,-4.663c1.602,1.31 3.758,2.006 6.281,2.006c6.822,0 8.251,-6.491 9.018,-9.979c1.033,-4.694 3.306,-7.436 5.169,-9.301c0.153,-0.152 0.198,-0.379 0.116,-0.578z" fill="#f4b711" fill-opacity="1">
				</path>
			</g>
		</g>
	</svg>
	<svg xmlns="http://www.w3.org/2000/svg" version="1.1" xmlns:xlink="http://www.w3.org/1999/xlink" xmlns:avocode="https://avocode.com/" viewBox="0 0 12 17">
		<g id="name" class="img">
			<g>
				<path d="M11.999,14.2168c0.002,-0.035 0.001,-0.243 0,0" fill="#e5e5e5" fill-opacity="1">
				</path>
			</g>
			<g>
				<path d="M11.9924,13.9639c-0.058,-3.646 -0.534,-4.685 -4.178,-5.343c0,0 -0.513,0.654 -1.708,0.654c-1.196,0 -1.709,-0.654 -1.709,-0.654c-3.604,0.651 -4.109,1.675 -4.175,5.224c-0.006,0.29 -0.008,0.306 -0.009,0.272c0,0.063 0,0.18 0,0.383c0,0 0.868,1.749 5.893,1.749c5.025,0 5.892,-1.749 5.892,-1.749c0,-0.131 0.001,-0.222 0.001,-0.283c-0.001,0.02 -0.003,-0.02 -0.007,-0.253z" fill="#e5e5e5" fill-opacity="1">
				</path>
			</g>
			<g>
				<path d="M0.2131,14.1167c0,-0.127 -0.001,-0.036 0,0" fill="#e5e5e5" fill-opacity="1">
				</path>
			</g>
			<g>
				<path d="M6.1062,8.3306c1.723,0 3.12,-1.697 3.12,-3.79c0,-2.093 -0.459,-3.79 -3.12,-3.79c-2.661,0 -3.12,1.697 -3.12,3.79c0,2.093 1.397,3.79 3.12,3.79z" fill="#e5e5e5" fill-opacity="1">
				</path>
			</g>
		</g>
	</svg>
	<svg xmlns="http://www.w3.org/2000/svg" version="1.1" xmlns:xlink="http://www.w3.org/1999/xlink" xmlns:avocode="https://avocode.com/" viewBox="0 0 14 15">
		<g id="phone-gray" class="img">
			<g>
				<path d="M13.6384,10.7314v0l-1.928,-1.928c-0.689,-0.688 -1.859,-0.413 -2.135,0.482c-0.206,0.62 -0.895,0.965 -1.515,0.827c-1.377,-0.345 -3.236,-2.135 -3.581,-3.581c-0.206,-0.62 0.207,-1.309 0.827,-1.515c0.895,-0.276 1.17,-1.446 0.482,-2.135l-1.928,-1.928c-0.551,-0.482 -1.378,-0.482 -1.86,0l-1.308,1.308c-1.308,1.377 0.138,5.027 3.374,8.264c3.237,3.236 6.886,4.751 8.264,3.374l1.308,-1.309c0.482,-0.55 0.482,-1.377 0,-1.859z" fill="#e5e5e5" fill-opacity="1">
				</path>
			</g>
		</g>
	</svg>
	<svg xmlns="http://www.w3.org/2000/svg" version="1.1" xmlns:xlink="http://www.w3.org/1999/xlink" xmlns:avocode="https://avocode.com/" viewBox="0 0 18 14">
		<g id="check" class="img">
			<g>
				<path d="M17.2305,1.0615c-0.331,-0.331 -0.868,-0.331 -1.199,0l-10.158,10.158v0l-3.905,-3.904c-0.331,-0.331 -0.868,-0.331 -1.199,0c-0.331,0.331 -0.331,0.868 0,1.199l4.504,4.504c0.331,0.331 0.868,0.331 1.199,0l10.758,-10.758c0.331,-0.331 0.331,-0.868 0,-1.199z" fill="#f4b711" fill-opacity="1">
				</path>
			</g>
		</g>
	</svg>
	<svg xmlns="http://www.w3.org/2000/svg" version="1.1" xmlns:xlink="http://www.w3.org/1999/xlink" xmlns:avocode="https://avocode.com/" viewBox="0 0 16 12">
		<g id="check-white" class="img">
			<g>
				<path d="M15.7656,0.1465c-0.312,-0.312 -0.819,-0.312 -1.131,0l-9.585,9.585v0l-3.684,-3.685c-0.312,-0.312 -0.819,-0.312 -1.131,0c-0.313,0.313 -0.313,0.82 0,1.132l4.25,4.249c0.312,0.313 0.819,0.313 1.131,0l10.15,-10.149c0.312,-0.313 0.312,-0.82 0,-1.132z" fill="#ffffff" fill-opacity="1">
				</path>
			</g>
		</g>
	</svg>
	<svg xmlns="http://www.w3.org/2000/svg" version="1.1" xmlns:xlink="http://www.w3.org/1999/xlink" xmlns:avocode="https://avocode.com/" viewBox="0 0 19 19">
		<g id="phone-black" class="img">
			<g>
				<path d="M18.5117,14.123v0l-2.604,-2.604c-0.929,-0.929 -2.51,-0.557 -2.882,0.652c-0.279,0.836 -1.209,1.302 -2.046,1.115c-1.859,-0.465 -4.37,-2.883 -4.835,-4.835c-0.279,-0.837 0.279,-1.766 1.116,-2.046c1.209,-0.372 1.581,-1.952 0.651,-2.883l-2.604,-2.603c-0.744,-0.65 -1.859,-0.65 -2.51,0l-1.767,1.767c-1.767,1.86 0.186,6.788 4.556,11.158c4.371,4.371 9.299,6.416 11.158,4.556l1.767,-1.766c0.651,-0.744 0.651,-1.86 0,-2.511z" fill="#000000" fill-opacity="1">
				</path>
			</g>
		</g>
	</svg>
	<svg xmlns="http://www.w3.org/2000/svg" version="1.1" xmlns:xlink="http://www.w3.org/1999/xlink" xmlns:avocode="https://avocode.com/" viewBox="0 0 20 20">
		<g id="whatsapp" class="img">
			<g>
				<path d="M9.6949,0.8501c5.277,0 9.571,4.294 9.571,9.576c0,5.28 -4.294,9.574 -9.571,9.574c-1.948,0 -3.755,-0.58 -5.269,-1.586l-3.681,1.179l1.193,-3.558c-1.148,-1.574 -1.821,-3.516 -1.821,-5.609c0,-5.282 4.293,-9.576 9.574,-9.576zM15.2639,14.3711c0.232,-0.654 0.232,-1.208 0.165,-1.335c-0.068,-0.116 -0.255,-0.184 -0.535,-0.325c-0.281,-0.139 -1.65,-0.816 -1.908,-0.905c-0.254,-0.094 -0.497,-0.06 -0.688,0.209c-0.269,0.377 -0.534,0.759 -0.748,0.991c-0.168,0.179 -0.441,0.202 -0.673,0.105c-0.31,-0.128 -1.174,-0.434 -2.244,-1.384c-0.827,-0.737 -1.388,-1.653 -1.552,-1.93c-0.165,-0.28 -0.019,-0.442 0.112,-0.595c0.139,-0.176 0.273,-0.303 0.415,-0.463c0.142,-0.161 0.221,-0.247 0.311,-0.438c0.093,-0.187 0.026,-0.377 -0.041,-0.52c-0.068,-0.141 -0.629,-1.514 -0.861,-2.072c-0.187,-0.442 -0.329,-0.46 -0.609,-0.471c-0.098,-0.004 -0.202,-0.012 -0.322,-0.012c-0.366,0 -0.748,0.109 -0.98,0.345c-0.28,0.288 -0.98,0.957 -0.98,2.33c0,1.372 1.003,2.7 1.137,2.887c0.142,0.187 1.956,3.045 4.769,4.212c2.203,0.912 2.853,0.826 3.355,0.722c0.729,-0.158 1.645,-0.7 1.877,-1.351z" fill="#ffffff" fill-opacity="1">
				</path>
			</g>
		</g>
	</svg>
	<svg xmlns="http://www.w3.org/2000/svg" version="1.1" xmlns:xlink="http://www.w3.org/1999/xlink" xmlns:avocode="https://avocode.com/" viewBox="0 0 17 22">
		<g id="commerce" class="img">
			<g>
				<path d="M12.5769,5.1133v0h4.099v0l-4.738,-4.739v0v4.099c0,0.353 0.286,0.64 0.639,0.64z" fill="#000000" fill-opacity="1">
				</path>
			</g>
			<g>
				<path d="M2.2997,21.908c-1.057,0 -1.917,-0.86 -1.917,-1.918v-17.98c0,-1.058 0.86,-1.918 1.917,-1.918h8.309v4.474c0,1.057 0.86,1.917 1.917,1.917h4.474v13.507c0,1.058 -0.86,1.918 -1.917,1.918zM4.8567,9.083c-0.353,0 -0.639,0.285 -0.639,0.639c0,0.353 0.286,0.639 0.639,0.639h7.669c0.354,0 0.64,-0.286 0.64,-0.639c0,-0.354 -0.286,-0.639 -0.64,-0.639zM4.8567,11.639c-0.353,0 -0.639,0.286 -0.639,0.639c0,0.354 0.286,0.639 0.639,0.639h7.669c0.354,0 0.64,-0.285 0.64,-0.639c0,-0.353 -0.286,-0.639 -0.64,-0.639zM4.8567,14.195c-0.353,0 -0.639,0.286 -0.639,0.64c0,0.354 0.286,0.639 0.639,0.639h7.669c0.354,0 0.64,-0.285 0.64,-0.639c0,-0.354 -0.286,-0.64 -0.64,-0.64zM4.8567,16.752c-0.353,0 -0.639,0.286 -0.639,0.64c0,0.352 0.286,0.638 0.639,0.638h5.113c0.353,0 0.639,-0.286 0.639,-0.638c0,-0.354 -0.286,-0.64 -0.639,-0.64z" fill="#000000" fill-opacity="1">
				</path>
			</g>
		</g>
	</svg>
	<svg xmlns="http://www.w3.org/2000/svg" version="1.1" xmlns:xlink="http://www.w3.org/1999/xlink" xmlns:avocode="https://avocode.com/" viewBox="0 0 28 29">
		<g id="li" class="img">
			<g>
				<path d="M28,14.7871c0,7.732 -6.268,14 -14,14c-7.732,0 -14,-6.268 -14,-14c0,-7.731 6.268,-14 14,-14c7.732,0 14,6.269 14,14z" fill="#f4b711" fill-opacity="1">
				</path>
			</g>
			<g>
				<path d="M21.7656,9.1465c-0.312,-0.312 -0.819,-0.312 -1.131,0l-9.585,9.585v0l-3.684,-3.685c-0.312,-0.312 -0.819,-0.312 -1.131,0c-0.313,0.313 -0.313,0.82 0,1.132l4.25,4.249c0.312,0.313 0.819,0.313 1.131,0l10.15,-10.149c0.312,-0.313 0.312,-0.82 0,-1.132z" fill="#ffffff" fill-opacity="1">
				</path>
			</g>
		</g>
	</svg>
	<!--  -->
	<!--  -->
	<svg viewBox="0 0 16 16">
		<g id="chart" class="img">
			<rect x="6" width="4" height="16" />
			<rect x="12" y="4" width="4" height="12" />
			<rect x="0" y="8" width="4" height="8" />
		</g>
	</svg>
</svg>
